<svg width="151" height="150" viewBox="0 0 151 150" fill="none" xmlns="http://www.w3.org/2000/svg">
<path d="M0.0390625 75C0.0390625 33.5775 33.6166 0 75.0391 0C116.462 0 150.039 33.5775 150.039 75C150.039 116.422 116.462 150 75.0391 150C33.6166 150 0.0390625 116.422 0.0390625 75Z" fill="url(#paint0_radial_990_30)"/>
<mask id="mask0_990_30" style="mask-type:alpha" maskUnits="userSpaceOnUse" x="0" y="0" width="151" height="150">
<path d="M0.0390625 75C0.0390625 33.5775 33.6166 0 75.0391 0C116.462 0 150.039 33.5775 150.039 75C150.039 116.422 116.462 150 75.0391 150C33.6166 150 0.0390625 116.422 0.0390625 75Z" fill="url(#paint1_radial_990_30)"/>
</mask>
<g mask="url(#mask0_990_30)">
<g filter="url(#filter0_f_990_30)">
<path d="M67.5391 157.499C102.747 157.499 131.289 127.278 131.289 89.999C131.289 52.7198 102.747 22.499 67.5391 22.499C32.3309 22.499 3.78906 52.7198 3.78906 89.999C3.78906 127.278 32.3309 157.499 67.5391 157.499Z" fill="url(#paint2_linear_990_30)"/>
</g>
</g>
<mask id="mask1_990_30" style="mask-type:alpha" maskUnits="userSpaceOnUse" x="0" y="0" width="151" height="150">
<path d="M0.0390625 75C0.0390625 33.5775 33.6166 0 75.0391 0C116.462 0 150.039 33.5775 150.039 75C150.039 116.422 116.462 150 75.0391 150C33.6166 150 0.0390625 116.422 0.0390625 75Z" fill="#AA30BF"/>
</mask>
<g mask="url(#mask1_990_30)">
<path d="M75.0447 29.998L56.4898 30.2718C51.7011 30.4893 48.4311 31.2505 45.5698 32.3606C42.6111 33.5081 40.0986 35.0456 37.5974 37.5506C35.308 39.7981 33.5356 42.5174 32.4037 45.5193C31.2899 48.3806 30.5287 51.6543 30.3149 56.4393L30.0449 74.9944L30.3149 93.5456C30.5362 98.3344 31.2937 101.604 32.4037 104.469C33.533 107.473 35.3042 110.194 37.5936 112.442C40.0949 114.947 42.6036 116.488 45.5623 117.636C48.4236 118.749 51.6973 119.507 56.486 119.728L75.0372 120.002L93.5884 119.728C98.3771 119.507 101.651 118.749 104.516 117.636C107.517 116.505 110.236 114.733 112.481 112.442C114.77 110.194 116.543 107.475 117.674 104.473C118.781 101.612 119.542 98.3381 119.767 93.5531L120.041 75.0019L119.767 56.4468C119.542 51.6581 118.784 48.3881 117.674 45.5268C116.543 42.5235 114.771 39.8029 112.481 37.5543C109.976 35.0531 107.475 33.5156 104.512 32.3643C101.643 31.2505 98.3696 30.493 93.5809 30.2755L75.0297 29.998H75.0447ZM71.0097 38.1093H75.0447L93.2284 38.3681C97.6158 38.5706 99.9971 39.3018 101.583 39.9168C103.537 40.637 105.304 41.7865 106.755 43.2806C108.33 44.8556 109.305 46.3556 110.122 48.4556C110.737 50.0381 111.472 52.4193 111.671 56.8068L111.933 74.9831L111.671 93.1631C111.468 97.5506 110.737 99.9319 110.122 101.518C109.4 103.471 108.25 105.237 106.755 106.686C105.305 108.181 103.537 109.332 101.583 110.053C100.001 110.672 97.6158 111.403 93.2284 111.602L75.0447 111.864C63.0298 111.864 61.6048 111.819 56.861 111.602C52.4736 111.399 50.0923 110.664 48.5061 110.049C46.4061 109.232 44.9061 108.257 43.3311 106.682C41.8366 105.231 40.686 103.464 39.9636 101.511C39.3486 99.9281 38.6136 97.5431 38.4149 93.1594L38.1561 74.9756L38.4149 56.7956C38.6174 52.4081 39.3486 50.0268 39.9636 48.4406C40.7811 46.3406 41.7561 44.8406 43.3311 43.2656C44.9061 41.6906 46.4061 40.7156 48.5061 39.8981C50.0923 39.2793 52.4736 38.5481 56.861 38.3456L71.006 38.0943V38.1056L71.0097 38.1093ZM99.0671 45.5793C97.6349 45.5793 96.2614 46.1482 95.2487 47.1609C94.236 48.1736 93.6671 49.5472 93.6671 50.9793C93.6671 52.4115 94.236 53.785 95.2487 54.7977C96.2614 55.8104 97.6349 56.3793 99.0671 56.3793C100.499 56.3793 101.873 55.8104 102.885 54.7977C103.898 53.785 104.467 52.4115 104.467 50.9793C104.467 49.5472 103.898 48.1736 102.885 47.1609C101.873 46.1482 100.499 45.5793 99.0671 45.5793V45.5831V45.5793ZM75.0485 51.8868C62.2873 51.8868 51.9411 62.2331 51.9411 74.9981C51.9411 87.7631 62.2873 98.1019 75.0522 98.1019C78.0867 98.1029 81.0916 97.506 83.8953 96.3453C86.699 95.1846 89.2466 93.4829 91.3925 91.3374C93.5383 89.1918 95.2404 86.6445 96.4016 83.841C97.5627 81.0374 98.1601 78.0326 98.1596 74.9981C98.1596 62.2368 87.8171 51.8906 75.0522 51.8906L75.0485 51.8868ZM75.0485 59.9943C79.0267 59.9943 82.842 61.5747 85.655 64.3877C88.468 67.2008 90.0484 71.0161 90.0484 74.9944C90.0484 78.9726 88.468 82.7879 85.655 85.601C82.842 88.414 79.0267 89.9944 75.0485 89.9944C71.0702 89.9944 67.2549 88.414 64.4419 85.601C61.6289 82.7879 60.0485 78.9726 60.0485 74.9944C60.0485 71.0161 61.6289 67.2008 64.4419 64.3877C67.2549 61.5747 71.0702 59.9943 75.0485 59.9943V59.9943Z" fill="white"/>
</g>
<defs>
<filter id="filter0_f_990_30" x="-2.21094" y="16.499" width="139.5" height="147" filterUnits="userSpaceOnUse" color-interpolation-filters="sRGB">
<feFlood flood-opacity="0" result="BackgroundImageFix"/>
<feBlend mode="normal" in="SourceGraphic" in2="BackgroundImageFix" result="shape"/>
<feGaussianBlur stdDeviation="3" result="effect1_foregroundBlur_990_30"/>
</filter>
<radialGradient id="paint0_radial_990_30" cx="0" cy="0" r="1" gradientUnits="userSpaceOnUse" gradientTransform="translate(33.7891 28.125) rotate(21.9606) scale(125.345 225.081)">
<stop stop-color="#4466CA"/>
<stop offset="1" stop-color="#D03C9E"/>
</radialGradient>
<radialGradient id="paint1_radial_990_30" cx="0" cy="0" r="1" gradientUnits="userSpaceOnUse" gradientTransform="translate(33.7891 28.125) rotate(21.9606) scale(125.345 225.081)">
<stop stop-color="#4466CA"/>
<stop offset="1" stop-color="#D03C9E"/>
</radialGradient>
<linearGradient id="paint2_linear_990_30" x1="88.1641" y1="44.999" x2="46.4341" y2="132.993" gradientUnits="userSpaceOnUse">
<stop stop-color="#F04E5D"/>
<stop offset="0.45" stop-color="#FE5D40"/>
<stop offset="1" stop-color="#FFD352"/>
</linearGradient>
</defs>
</svg>
