<svg width="150" height="150" viewBox="0 0 150 150" fill="none" xmlns="http://www.w3.org/2000/svg">
<path d="M0 75C0 33.5775 33.5775 0 75 0C116.422 0 150 33.5775 150 75C150 116.422 116.422 150 75 150C33.5775 150 0 116.422 0 75Z" fill="#0077B5"/>
<path d="M53 62.1191V113.187H36.0013V62.1191H53ZM54.1213 46.3201C54.1213 51.2252 50.4313 55.1477 44.5025 55.1477H44.3938C38.6863 55.1477 35 51.2252 35 46.3201C35 41.3138 38.8025 37.5 44.615 37.5C50.4275 37.5 54.0088 41.3138 54.1213 46.3201ZM114.298 83.9068V113.187H97.3026V85.8643C97.3026 79.0018 94.8426 74.318 88.6888 74.318C83.9938 74.318 81.1963 77.4755 79.9663 80.5243C79.5163 81.6155 79.4076 83.1381 79.4076 84.6643V113.183H62.4088V62.1191H79.4076V69.3529C81.6651 65.8766 85.7038 60.919 94.7264 60.919C105.913 60.919 114.298 68.2204 114.298 83.9068Z" fill="white"/>
</svg>
