<svg width="150" height="150" viewBox="0 0 150 150" fill="none" xmlns="http://www.w3.org/2000/svg">
<path d="M0 75C0 33.5775 33.5775 0 75 0C116.422 0 150 33.5775 150 75C150 116.422 116.422 150 75 150C33.5775 150 0 116.422 0 75Z" fill="#55ACEE"/>
<path d="M72.7537 60.9657L72.9112 63.5607L70.2862 63.242C60.7387 62.0232 52.3987 57.8945 45.315 50.9532L41.8537 47.5107L40.9612 50.0532C39.0713 55.7195 40.2787 61.7045 44.2125 65.7282C46.3125 67.952 45.84 68.2707 42.2175 66.947C40.9575 66.5232 39.855 66.2045 39.75 66.3657C39.3825 66.737 40.6425 71.5557 41.64 73.4645C43.005 76.112 45.7837 78.707 48.8287 80.2445L51.3975 81.4632L48.3562 81.5157C45.42 81.5157 45.315 81.5682 45.63 82.682C46.68 86.1245 50.8237 89.7807 55.44 91.367L58.6912 92.477L55.86 94.172C51.6637 96.6095 46.7325 97.9857 41.8012 98.0907C39.4388 98.1432 37.5 98.357 37.5 98.5145C37.5 99.0432 43.9012 102.009 47.625 103.176C58.8 106.618 72.0712 105.133 82.0387 99.257C89.1225 95.072 96.2025 86.7582 99.51 78.707C101.295 74.417 103.076 66.5795 103.076 62.8182C103.076 60.3807 103.234 60.062 106.17 57.152C107.902 55.457 109.526 53.6045 109.841 53.072C110.366 52.067 110.314 52.067 107.64 52.967C103.181 54.557 102.551 54.3432 104.752 51.962C106.38 50.267 108.319 47.1957 108.319 46.2957C108.319 46.1382 107.531 46.4007 106.639 46.877C105.694 47.4057 103.597 48.2007 102.022 48.677L99.1912 49.577L96.6225 47.8295C95.205 46.877 93.2137 45.8157 92.1637 45.5007C89.49 44.7582 85.395 44.867 82.9837 45.7107C76.425 48.0957 72.2812 54.2382 72.7537 60.962V60.9657Z" fill="white"/>
</svg>
