<svg width="150" height="150" viewBox="0 0 150 150" fill="none" xmlns="http://www.w3.org/2000/svg">
<path d="M0 75C0 33.5775 33.5775 0 75 0C116.422 0 150 33.5775 150 75C150 116.422 116.422 150 75 150C33.5775 150 0 116.422 0 75Z" fill="#FF0000"/>
<path d="M113.33 56.4766C112.411 52.944 109.7 50.1577 106.257 49.2127C100.021 47.4951 75.001 47.4951 75.001 47.4951C75.001 47.4951 49.9849 47.4951 43.7449 49.2127C40.3025 50.1577 37.5912 52.9402 36.6725 56.4766C35 62.8817 35 76.247 35 76.247C35 76.247 35 89.6123 36.6725 96.0174C37.5912 99.55 40.3025 102.336 43.7449 103.281C49.9849 104.999 75.001 104.999 75.001 104.999C75.001 104.999 100.017 104.999 106.257 103.281C109.7 102.336 112.411 99.5537 113.33 96.0174C115.002 89.6123 115.002 76.247 115.002 76.247C115.002 76.247 115.002 62.8817 113.33 56.4766Z" fill="white"/>
<path d="M67.498 90.0061V65.0049L87.4968 77.5036L67.498 90.0061Z" fill="#FF0000"/>
</svg>
